<?xml version="1.0" standalone="no"?>
<!DOCTYPE svg PUBLIC "-//W3C//DTD SVG 20010904//EN"
 "http://www.w3.org/TR/2001/REC-SVG-20010904/DTD/svg10.dtd">
<svg version="1.0" xmlns="http://www.w3.org/2000/svg"
 width="652.000000pt" height="652.000000pt" viewBox="0 0 652.000000 652.000000"
 preserveAspectRatio="xMidYMid meet">
<metadata>
Created by potrace 1.14, written by Peter Selinger 2001-2017
</metadata>
<g transform="translate(0.000000,652.000000) scale(0.100000,-0.100000)"
fill="#000000" stroke="none">
<path d="M3345 6378 c-95 -310 -61 -898 80 -1363 87 -287 200 -484 702 -1225
76 -113 158 -236 182 -273 23 -38 44 -67 46 -65 2 2 0 68 -5 148 -5 80 -14
296 -20 480 -20 638 -50 896 -129 1137 -136 416 -396 860 -643 1099 -73 71
-164 144 -179 144 -5 0 -20 -37 -34 -82z"/>
<path d="M2699 4056 c-158 -28 -339 -91 -466 -162 -212 -118 -427 -345 -538
-564 -198 -394 -237 -767 -115 -1101 65 -179 214 -366 360 -452 178 -104 374
-109 555 -14 90 47 224 184 269 275 86 171 89 329 9 486 -75 147 -259 238
-426 209 -173 -29 -298 -143 -353 -319 -30 -101 -58 -143 -108 -168 -32 -16
-44 -17 -77 -7 -50 15 -77 52 -136 187 l-48 109 0 130 c1 125 2 135 42 250 77
229 148 351 268 463 272 254 664 243 1105 -31 368 -230 706 -616 920 -1052
176 -360 268 -724 310 -1225 9 -114 26 -705 25 -892 0 -44 5 -82 11 -88 13
-13 94 -33 101 -26 16 16 81 708 104 1100 13 224 6 802 -11 936 -44 350 -119
602 -275 927 -250 521 -518 795 -939 963 -136 54 -229 72 -376 76 -83 2 -164
-2 -211 -10z"/>
<path d="M3470 1991 c-95 -31 -168 -99 -196 -183 -76 -229 133 -432 360 -351
67 24 140 92 162 150 52 135 -11 299 -139 365 -45 22 -145 33 -187 19z"/>
</g>
</svg>
